<svg width="272" height="1188" viewBox="0 0 272 1188" fill="none" xmlns="http://www.w3.org/2000/svg">
<rect width="54.1103" height="795.511" rx="27.0551" transform="matrix(1 0 0 -1 109.022 1187.23)" fill="url(#paint0_linear_626_369)"/>
<rect width="54.1103" height="751.391" rx="27.0551" transform="matrix(1 0 0 -1 54.9117 935.5)" fill="url(#paint1_linear_626_369)"/>
<rect width="54.1103" height="579.229" rx="27.0551" transform="matrix(1 0 0 -1 217.242 1040.15)" fill="url(#paint2_linear_626_369)"/>
<rect width="54.1103" height="913.709" rx="27.0551" transform="matrix(1 0 0 -1 163.132 1140.56)" fill="url(#paint3_linear_626_369)"/>
<rect width="54.1103" height="898.776" rx="27.0551" transform="matrix(1 0 0 -1 0.801453 899.7)" fill="url(#paint4_linear_626_369)"/>
<defs>
<linearGradient id="paint0_linear_626_369" x1="27.0551" y1="0" x2="27.0551" y2="795.511" gradientUnits="userSpaceOnUse">
<stop stop-color="white"/>
<stop offset="1" stop-color="white" stop-opacity="0"/>
</linearGradient>
<linearGradient id="paint1_linear_626_369" x1="27.0551" y1="0" x2="27.0551" y2="751.391" gradientUnits="userSpaceOnUse">
<stop stop-color="white"/>
<stop offset="1" stop-color="white" stop-opacity="0"/>
</linearGradient>
<linearGradient id="paint2_linear_626_369" x1="27.0551" y1="0" x2="27.0551" y2="579.229" gradientUnits="userSpaceOnUse">
<stop stop-color="white"/>
<stop offset="1" stop-color="white" stop-opacity="0"/>
</linearGradient>
<linearGradient id="paint3_linear_626_369" x1="27.0551" y1="0" x2="27.0551" y2="913.709" gradientUnits="userSpaceOnUse">
<stop stop-color="white"/>
<stop offset="1" stop-color="white" stop-opacity="0"/>
</linearGradient>
<linearGradient id="paint4_linear_626_369" x1="27.0551" y1="0" x2="27.0551" y2="898.776" gradientUnits="userSpaceOnUse">
<stop stop-color="white"/>
<stop offset="1" stop-color="white" stop-opacity="0"/>
</linearGradient>
</defs>
</svg>
