<svg width="75" height="95" viewBox="0 0 75 95" fill="none" xmlns="http://www.w3.org/2000/svg">
<rect x="0.318329" y="0.125" width="74.5698" height="94" rx="10" fill="#FAFAFA"/>
<g clip-path="url(#clip0_41_400)">
<path d="M56.2183 37.7863V26.9675C56.2183 25.2609 55.1024 23.8724 53.7309 23.8724H20.6569C19.2853 23.8724 18.1695 25.2609 18.1695 26.9675V62.3216C18.1695 64.0504 19.2853 65.4571 20.6569 65.4571H37.0143V67.7241C37.0143 70.0114 38.4906 71.8724 40.3051 71.8724H52.9569C54.7715 71.8724 56.2477 70.0114 56.2477 67.7241V38.3331C56.2477 38.1477 56.237 37.9654 56.2183 37.7863ZM19.657 26.9675C19.657 26.2833 20.0962 25.7474 20.6569 25.7474H53.7309C54.2915 25.7474 54.7308 26.2833 54.7308 26.9675V34.842C54.3139 34.5042 53.8333 34.2814 53.3168 34.2102C53.3165 34.2102 53.3162 34.2101 53.316 34.2101C53.2925 34.2069 53.2689 34.2044 53.2452 34.2018C53.2446 34.2017 53.2439 34.2016 53.2433 34.2016V28.5196C53.2433 28.0019 52.9102 27.5821 52.4996 27.5821H21.8881C21.4773 27.5821 21.1444 28.0019 21.1444 28.5196V56.4722H19.657V26.9675ZM37.0144 60.0162H29.5835C29.1728 60.0162 28.8398 60.436 28.8398 60.9537C28.8398 61.4714 29.1728 61.8912 29.5835 61.8912H37.0144V63.5821H20.6569C20.1056 63.5821 19.657 63.0167 19.657 62.3216V58.3472H37.0144V60.0162ZM37.0144 53.0855H26.4107V49.2379H37.0144V53.0855ZM37.4922 36.1823C37.4918 36.1831 37.4915 36.1838 37.4911 36.1846C37.4666 36.2353 37.4433 36.287 37.4205 36.3392C37.4138 36.3545 37.4073 36.3701 37.4007 36.3856C37.3838 36.4256 37.3673 36.4661 37.3514 36.5069C37.3455 36.5217 37.3397 36.5364 37.334 36.5513C37.3136 36.6051 37.2939 36.6595 37.2753 36.7146C37.2723 36.7236 37.2695 36.7328 37.2666 36.7419C37.251 36.7889 37.2361 36.8363 37.2219 36.8842C37.2168 36.9015 37.2118 36.9189 37.2068 36.9363C37.1941 36.9809 37.1821 37.0259 37.1706 37.0712C37.1671 37.0848 37.1634 37.0982 37.1601 37.1118C37.1459 37.1696 37.1328 37.2278 37.1207 37.2866C37.1177 37.3005 37.1153 37.3144 37.1125 37.3283C37.1033 37.3749 37.0947 37.4219 37.0867 37.4691C37.0837 37.4873 37.0806 37.5055 37.0778 37.5237C37.0697 37.5752 37.0623 37.6269 37.0557 37.679C37.0545 37.6888 37.053 37.6983 37.0519 37.7081C37.0445 37.7692 37.0384 37.8309 37.0332 37.8929C37.0318 37.9096 37.0307 37.9264 37.0295 37.9432C37.0259 37.9909 37.023 38.0389 37.0208 38.0871C37.02 38.1054 37.019 38.1236 37.0183 38.142C37.016 38.2054 37.0144 38.2691 37.0144 38.3332V44.2736H26.4107V36.0599H37.5536C37.5326 36.1002 37.5121 36.141 37.4922 36.1823ZM25.667 34.1849C25.2562 34.1849 24.9233 34.6047 24.9233 35.1224V45.211C24.9233 45.7287 25.2562 46.1485 25.667 46.1485H37.0144V47.3629H25.667C25.2562 47.3629 24.9233 47.7828 24.9233 48.3004V54.023C24.9233 54.5407 25.2562 54.9605 25.667 54.9605H37.0144V56.4722H22.6318V29.4571H51.756V34.1849H25.667ZM54.7603 67.7241C54.7603 68.9776 53.9513 69.9974 52.9569 69.9974H40.3052C39.3108 69.9974 38.5018 68.9776 38.5018 67.7241V66.2156H54.7603V67.7241ZM54.7603 64.3406H38.5018V41.7167H54.7603V64.3406ZM54.7605 39.8416H38.5018V38.333C38.5018 37.0796 39.3108 36.0598 40.3052 36.0598H52.4997H52.9569C53.0098 36.0598 53.0621 36.0632 53.1139 36.069C53.1174 36.0693 53.1209 36.0695 53.1244 36.07C53.7703 36.1472 54.3327 36.665 54.5979 37.3922C54.5998 37.3976 54.6018 37.403 54.6038 37.4085C54.6232 37.4627 54.6408 37.5183 54.6568 37.5748C54.6598 37.5854 54.6625 37.5962 54.6654 37.6068C54.6801 37.6611 54.6934 37.7162 54.7048 37.7723C54.707 37.7833 54.7088 37.7944 54.7109 37.8054C54.7213 37.8603 54.7303 37.9158 54.7375 37.9723C54.7524 38.0898 54.7605 38.2102 54.7605 38.333V39.8416V39.8416Z" fill="url(#paint0_linear_41_400)"/>
<path d="M50.4155 37.7679C50.4059 37.708 50.3917 37.6489 50.3731 37.5918C50.3546 37.5355 50.3315 37.4811 50.3047 37.4305C50.278 37.3788 50.2467 37.331 50.2125 37.2879C50.1783 37.2448 50.1404 37.2054 50.0995 37.1717C50.0593 37.138 50.0154 37.1088 49.9708 37.0854C49.9262 37.062 49.8794 37.0433 49.8317 37.031C49.7358 37.0067 49.6369 37.0067 49.5409 37.031C49.4941 37.0433 49.4472 37.062 49.4019 37.0854C49.3572 37.1088 49.3141 37.138 49.2739 37.1717C49.233 37.2054 49.1951 37.2448 49.1609 37.2879C49.0218 37.4623 48.943 37.7042 48.943 37.9507C48.943 38.0116 48.9475 38.0735 48.957 38.1335C48.9667 38.1935 48.9808 38.2526 48.9994 38.3088C49.018 38.3659 49.0411 38.4203 49.0679 38.4709C49.0954 38.5225 49.1266 38.5704 49.1608 38.6135C49.195 38.6567 49.233 38.696 49.2739 38.7297C49.314 38.7634 49.3572 38.7925 49.4019 38.8159C49.4472 38.8394 49.494 38.8581 49.5409 38.8694C49.5892 38.8816 49.6384 38.8881 49.6867 38.8881C49.735 38.8881 49.7841 38.8816 49.8317 38.8694C49.8793 38.8581 49.9262 38.8394 49.9707 38.8159C50.0154 38.7925 50.0592 38.7634 50.0994 38.7297C50.1403 38.696 50.1782 38.6567 50.2124 38.6135C50.2466 38.5704 50.2779 38.5225 50.3047 38.4709C50.3314 38.4203 50.3545 38.3659 50.3731 38.3088C50.3917 38.2525 50.4058 38.1935 50.4155 38.1335C50.4251 38.0734 50.4295 38.0116 50.4295 37.9507C50.4295 37.8898 50.4251 37.8278 50.4155 37.7679Z" fill="url(#paint1_linear_41_400)"/>
<path d="M46.8603 37.0133H43.5756C43.165 37.0133 42.8319 37.4331 42.8319 37.9508C42.8319 38.4685 43.165 38.8883 43.5756 38.8883H46.8603C47.271 38.8883 47.604 38.4685 47.604 37.9508C47.604 37.4331 47.2711 37.0133 46.8603 37.0133Z" fill="url(#paint2_linear_41_400)"/>
<path d="M47.611 67.1689H45.651C45.2404 67.1689 44.9073 67.5888 44.9073 68.1064C44.9073 68.6241 45.2403 69.0439 45.651 69.0439H47.611C48.0217 69.0439 48.3548 68.6241 48.3548 68.1064C48.3548 67.5888 48.0217 67.1689 47.611 67.1689Z" fill="url(#paint3_linear_41_400)"/>
<path d="M29.0165 40.1487L29.7921 39.171C30.0825 38.8049 30.0825 38.2112 29.7921 37.8451C29.5017 37.4791 29.0307 37.4791 28.7402 37.8451L27.4387 39.4857C27.1483 39.8518 27.1483 40.4454 27.4387 40.8116L28.7403 42.4523C28.8856 42.6353 29.0759 42.7269 29.2662 42.7269C29.4565 42.7269 29.6469 42.6353 29.7921 42.4523C30.0825 42.0862 30.0825 41.4926 29.7921 41.1264L29.0165 40.1487Z" fill="url(#paint4_linear_41_400)"/>
<path d="M32.1098 31.2317C32.1002 31.1716 32.086 31.1126 32.0674 31.0564C32.0488 30.9992 32.0258 30.9449 31.999 30.8942C31.9715 30.8427 31.941 30.7949 31.9068 30.7517C31.8726 30.7086 31.8339 30.6692 31.7937 30.6355C31.7528 30.6018 31.7097 30.5727 31.6651 30.5492C31.6205 30.5258 31.5736 30.5081 31.526 30.4958C31.4301 30.4714 31.3311 30.4714 31.2352 30.4958C31.1876 30.5081 31.1408 30.5258 31.0961 30.5492C31.0515 30.5727 31.0084 30.6018 30.9675 30.6355C30.9273 30.6692 30.8886 30.7086 30.8544 30.7517C30.8202 30.7949 30.7897 30.8427 30.7622 30.8942C30.7354 30.9449 30.7124 30.9992 30.6938 31.0564C30.6752 31.1127 30.6611 31.1716 30.6514 31.2317C30.6417 31.2917 30.6365 31.3536 30.6365 31.4145C30.6365 31.4754 30.6417 31.5374 30.6514 31.5973C30.6611 31.6574 30.6752 31.7164 30.6938 31.7736C30.7124 31.8299 30.7354 31.8842 30.7622 31.9349C30.7897 31.9864 30.8202 32.0342 30.8544 32.0774C30.8886 32.1205 30.9273 32.1599 30.9675 32.1945C31.0084 32.2283 31.0515 32.2574 31.0961 32.2808C31.1408 32.3033 31.1876 32.322 31.2352 32.3334C31.2836 32.3456 31.3319 32.3521 31.381 32.3521C31.4293 32.3521 31.4777 32.3456 31.526 32.3334C31.5736 32.3221 31.6205 32.3034 31.6651 32.2808C31.7097 32.2574 31.7528 32.2283 31.7937 32.1945C31.8339 32.1599 31.8726 32.1205 31.9068 32.0774C31.941 32.0342 31.9715 31.9864 31.999 31.9349C32.0258 31.8842 32.0488 31.8299 32.0674 31.7736C32.086 31.7164 32.1002 31.6574 32.1098 31.5973C32.1195 31.5373 32.1239 31.4754 32.1239 31.4145C32.1239 31.3536 32.1195 31.2916 32.1098 31.2317Z" fill="url(#paint5_linear_41_400)"/>
<path d="M43.0073 30.4772H34.2067C33.796 30.4772 33.463 30.897 33.463 31.4147C33.463 31.9324 33.796 32.3522 34.2067 32.3522H43.0073C43.418 32.3522 43.7511 31.9324 43.7511 31.4147C43.7511 30.897 43.418 30.4772 43.0073 30.4772Z" fill="url(#paint6_linear_41_400)"/>
<path d="M52.5801 43.0916H40.682C40.2713 43.0916 39.9383 43.5114 39.9383 44.0291V53.2162C39.9383 53.7339 40.2713 54.1537 40.682 54.1537H52.58C52.9907 54.1537 53.3237 53.7339 53.3237 53.2162V44.0291C53.3238 43.5113 52.9908 43.0916 52.5801 43.0916ZM41.4257 52.2787V44.9666H51.8363V52.2787H41.4257Z" fill="url(#paint7_linear_41_400)"/>
<path d="M52.5801 55.8369H40.682C40.2713 55.8369 39.9383 56.2567 39.9383 56.7744V62.4969C39.9383 63.0146 40.2713 63.4344 40.682 63.4344H52.58C52.9907 63.4344 53.3237 63.0146 53.3237 62.4969V56.7744C53.3238 56.2567 52.9908 55.8369 52.5801 55.8369ZM41.4257 61.5594V57.7119H51.8363V61.5594H41.4257Z" fill="url(#paint8_linear_41_400)"/>
<path d="M50.8239 47.9597L49.5224 46.3191C49.2319 45.9531 48.7611 45.9531 48.4706 46.3191C48.1802 46.6852 48.1802 47.2788 48.4706 47.645L49.2462 48.6227L48.4706 49.6004C48.1802 49.9665 48.1802 50.5601 48.4707 50.9262C48.6159 51.1092 48.8062 51.2008 48.9965 51.2008C49.1869 51.2008 49.3772 51.1092 49.5224 50.9262L50.8239 49.2856C51.1143 48.9195 51.1143 48.3259 50.8239 47.9597Z" fill="url(#paint9_linear_41_400)"/>
<path d="M44.0315 48.6226L44.8071 47.6448C45.0975 47.2787 45.0975 46.6851 44.8071 46.3189C44.5166 45.9529 44.0458 45.9529 43.7553 46.3189L42.4538 47.9596C42.1633 48.3257 42.1633 48.9193 42.4538 49.2855L43.7553 50.9262C43.9006 51.1092 44.0909 51.2008 44.2812 51.2008C44.4715 51.2008 44.6619 51.1092 44.8071 50.9262C45.0975 50.5601 45.0975 49.9665 44.8071 49.6003L44.0315 48.6226Z" fill="url(#paint10_linear_41_400)"/>
</g>
<defs>
<linearGradient id="paint0_linear_41_400" x1="18.1695" y1="20.6836" x2="66.54" y2="65.2274" gradientUnits="userSpaceOnUse">
<stop offset="0.0271195" stop-color="#6C48D3"/>
<stop offset="0.287564" stop-color="#4D4DE2"/>
<stop offset="0.808912" stop-color="#3778FC"/>
<stop offset="0.967351" stop-color="#0370FF"/>
</linearGradient>
<linearGradient id="paint1_linear_41_400" x1="48.943" y1="36.8882" x2="50.8327" y2="38.627" gradientUnits="userSpaceOnUse">
<stop offset="0.0271195" stop-color="#6C48D3"/>
<stop offset="0.287564" stop-color="#4D4DE2"/>
<stop offset="0.808912" stop-color="#3778FC"/>
<stop offset="0.967351" stop-color="#0370FF"/>
</linearGradient>
<linearGradient id="paint2_linear_41_400" x1="42.8319" y1="36.8888" x2="43.9834" y2="40.2908" gradientUnits="userSpaceOnUse">
<stop offset="0.0271195" stop-color="#6C48D3"/>
<stop offset="0.287564" stop-color="#4D4DE2"/>
<stop offset="0.808912" stop-color="#3778FC"/>
<stop offset="0.967351" stop-color="#0370FF"/>
</linearGradient>
<linearGradient id="paint3_linear_41_400" x1="44.9073" y1="67.0444" x2="46.3641" y2="70.1536" gradientUnits="userSpaceOnUse">
<stop offset="0.0271195" stop-color="#6C48D3"/>
<stop offset="0.287564" stop-color="#4D4DE2"/>
<stop offset="0.808912" stop-color="#3778FC"/>
<stop offset="0.967351" stop-color="#0370FF"/>
</linearGradient>
<linearGradient id="paint4_linear_41_400" x1="27.2209" y1="37.228" x2="31.9169" y2="40.1765" gradientUnits="userSpaceOnUse">
<stop offset="0.0271195" stop-color="#6C48D3"/>
<stop offset="0.287564" stop-color="#4D4DE2"/>
<stop offset="0.808912" stop-color="#3778FC"/>
<stop offset="0.967351" stop-color="#0370FF"/>
</linearGradient>
<linearGradient id="paint5_linear_41_400" x1="30.6365" y1="30.353" x2="32.5256" y2="32.093" gradientUnits="userSpaceOnUse">
<stop offset="0.0271195" stop-color="#6C48D3"/>
<stop offset="0.287564" stop-color="#4D4DE2"/>
<stop offset="0.808912" stop-color="#3778FC"/>
<stop offset="0.967351" stop-color="#0370FF"/>
</linearGradient>
<linearGradient id="paint6_linear_41_400" x1="33.463" y1="30.3526" x2="34.044" y2="34.0532" gradientUnits="userSpaceOnUse">
<stop offset="0.0271195" stop-color="#6C48D3"/>
<stop offset="0.287564" stop-color="#4D4DE2"/>
<stop offset="0.808912" stop-color="#3778FC"/>
<stop offset="0.967351" stop-color="#0370FF"/>
</linearGradient>
<linearGradient id="paint7_linear_41_400" x1="39.9383" y1="42.3567" x2="50.5076" y2="57.2029" gradientUnits="userSpaceOnUse">
<stop offset="0.0271195" stop-color="#6C48D3"/>
<stop offset="0.287564" stop-color="#4D4DE2"/>
<stop offset="0.808912" stop-color="#3778FC"/>
<stop offset="0.967351" stop-color="#0370FF"/>
</linearGradient>
<linearGradient id="paint8_linear_41_400" x1="39.9383" y1="55.3322" x2="46.0012" y2="67.732" gradientUnits="userSpaceOnUse">
<stop offset="0.0271195" stop-color="#6C48D3"/>
<stop offset="0.287564" stop-color="#4D4DE2"/>
<stop offset="0.808912" stop-color="#3778FC"/>
<stop offset="0.967351" stop-color="#0370FF"/>
</linearGradient>
<linearGradient id="paint9_linear_41_400" x1="48.2528" y1="45.702" x2="52.9487" y2="48.6505" gradientUnits="userSpaceOnUse">
<stop offset="0.0271195" stop-color="#6C48D3"/>
<stop offset="0.287564" stop-color="#4D4DE2"/>
<stop offset="0.808912" stop-color="#3778FC"/>
<stop offset="0.967351" stop-color="#0370FF"/>
</linearGradient>
<linearGradient id="paint10_linear_41_400" x1="42.2359" y1="45.7019" x2="46.9319" y2="48.6504" gradientUnits="userSpaceOnUse">
<stop offset="0.0271195" stop-color="#6C48D3"/>
<stop offset="0.287564" stop-color="#4D4DE2"/>
<stop offset="0.808912" stop-color="#3778FC"/>
<stop offset="0.967351" stop-color="#0370FF"/>
</linearGradient>
<clipPath id="clip0_41_400">
<rect width="38.0782" height="48" fill="white" transform="translate(18.1695 23.8724)"/>
</clipPath>
</defs>
</svg>
