<svg width="75" height="94" viewBox="0 0 75 94" fill="none" xmlns="http://www.w3.org/2000/svg">
<rect x="-0.00012207" width="74.5698" height="94" rx="10" fill="#FAFAFA"/>
<path d="M45.8418 23H28.7278C26.9132 23 25.437 24.8609 25.437 27.1483V66.8517C25.437 69.1391 26.9132 71 28.7278 71H45.8418C47.6564 71 49.1326 69.1391 49.1326 66.8517V27.1483C49.1326 24.8609 47.6565 23 45.8418 23ZM47.6452 66.8516C47.6452 68.1051 46.8362 69.1249 45.8418 69.1249H28.7278C27.7334 69.1249 26.9244 68.1051 26.9244 66.8516V64.4056H47.6452V66.8516ZM47.6453 62.5306H26.9245V31.4693H47.6453V62.5306ZM47.6453 29.5943H26.9245V27.1483C26.9245 25.8948 27.7335 24.875 28.7279 24.875H45.8419C46.8363 24.875 47.6453 25.8948 47.6453 27.1483V29.5943Z" fill="url(#paint0_linear_41_399)"/>
<path d="M42.5569 27.0519C42.5473 26.9919 42.5331 26.9328 42.5145 26.8766C42.4959 26.8194 42.4729 26.765 42.4461 26.7144C42.4186 26.6628 42.3873 26.615 42.3531 26.5719C42.3189 26.5288 42.281 26.4894 42.2401 26.4556C42.1999 26.4219 42.1568 26.3928 42.1122 26.3694C42.0668 26.3459 42.0207 26.3272 41.9731 26.315C41.8771 26.2906 41.7782 26.2906 41.6823 26.315C41.6347 26.3272 41.5878 26.3459 41.5432 26.3694C41.4978 26.3928 41.4547 26.4219 41.4146 26.4556C41.3736 26.4894 41.3357 26.5288 41.3015 26.5719C41.2673 26.615 41.2361 26.6628 41.2093 26.7144C41.1826 26.765 41.1595 26.8194 41.1409 26.8766C41.1223 26.9328 41.1082 26.9919 41.0985 27.0519C41.0888 27.1119 41.0837 27.1738 41.0837 27.2347C41.0837 27.2956 41.0888 27.3575 41.0985 27.4175C41.1082 27.4775 41.1223 27.5366 41.1409 27.5928C41.1595 27.65 41.1826 27.7044 41.2093 27.755C41.2361 27.8066 41.2673 27.8544 41.3015 27.8975C41.3357 27.9406 41.3736 27.98 41.4146 28.0137C41.4547 28.0475 41.4978 28.0766 41.5432 28.1C41.5878 28.1234 41.6347 28.1412 41.6823 28.1534C41.7299 28.1656 41.779 28.1722 41.8273 28.1722C41.8756 28.1722 41.9247 28.1656 41.9731 28.1534C42.0207 28.1412 42.0668 28.1234 42.1122 28.1C42.1568 28.0766 42.1999 28.0475 42.2401 28.0137C42.281 27.98 42.3189 27.9406 42.3531 27.8975C42.3873 27.8544 42.4186 27.8066 42.4461 27.755C42.4729 27.7044 42.4959 27.65 42.5145 27.5928C42.5331 27.5366 42.5472 27.4775 42.5569 27.4175C42.5666 27.3575 42.571 27.2956 42.571 27.2347C42.571 27.1738 42.5665 27.1119 42.5569 27.0519Z" fill="url(#paint1_linear_41_399)"/>
<path d="M39.0015 26.2971H32.7419C32.3312 26.2971 31.9982 26.7168 31.9982 27.2346C31.9982 27.7524 32.3312 28.1721 32.7419 28.1721H39.0015C39.4122 28.1721 39.7453 27.7524 39.7453 27.2346C39.7453 26.7168 39.4122 26.2971 39.0015 26.2971Z" fill="url(#paint2_linear_41_399)"/>
<path d="M38.2649 65.8278H36.3048C35.8941 65.8278 35.5611 66.2475 35.5611 66.7653C35.5611 67.2831 35.8941 67.7028 36.3048 67.7028H38.2649C38.6755 67.7028 39.0086 67.2831 39.0086 66.7653C39.0086 66.2475 38.6755 65.8278 38.2649 65.8278Z" fill="url(#paint3_linear_41_399)"/>
<path d="M30.3415 59.8821C30.3318 59.8221 30.3177 59.7631 30.2991 59.7068C30.2805 59.6496 30.2575 59.5953 30.2307 59.5446C30.2032 59.4931 30.1719 59.4453 30.1377 59.4021C29.9652 59.1846 29.7086 59.0843 29.4669 59.1462C29.4193 59.1575 29.3724 59.1762 29.3278 59.1996C29.2825 59.2231 29.2393 59.2521 29.1992 59.2859C29.1583 59.3196 29.1203 59.359 29.0861 59.4021C29.0519 59.4453 29.0207 59.4931 28.9939 59.5446C28.9671 59.5953 28.9441 59.6496 28.9255 59.7068C28.9069 59.7631 28.8927 59.8221 28.8831 59.8821C28.8734 59.9421 28.8682 60.004 28.8682 60.065C28.8682 60.1259 28.8734 60.1878 28.8831 60.2478C28.8927 60.3078 28.9069 60.3668 28.9255 60.424C28.9441 60.4803 28.9671 60.5346 28.9939 60.5853C29.0207 60.6368 29.0519 60.6846 29.0861 60.7278C29.1203 60.7709 29.1583 60.8103 29.1992 60.844C29.2393 60.8787 29.2825 60.9068 29.3278 60.9303C29.3724 60.9537 29.4193 60.9725 29.4669 60.9837C29.5145 60.9959 29.5636 61.0025 29.6119 61.0025C29.8083 61.0025 29.9994 60.9021 30.1377 60.7278C30.2768 60.5534 30.3556 60.3115 30.3556 60.065C30.3556 60.004 30.3512 59.9421 30.3415 59.8821Z" fill="url(#paint4_linear_41_399)"/>
<path d="M44.9576 59.1274H32.4384C32.0276 59.1274 31.6947 59.5472 31.6947 60.0649C31.6947 60.5827 32.0276 61.0024 32.4384 61.0024H44.9576C45.3682 61.0024 45.7013 60.5827 45.7013 60.0649C45.7013 59.5472 45.3682 59.1274 44.9576 59.1274Z" fill="url(#paint5_linear_41_399)"/>
<path d="M39.7931 38.956C40.2118 38.2776 40.462 37.4261 40.462 36.5019C40.462 34.2934 39.0367 32.4967 37.2847 32.4967C35.5327 32.4967 34.1073 34.2935 34.1073 36.5019C34.1073 37.4261 34.3576 38.2776 34.7763 38.956C34.1626 39.3907 33.747 40.2188 33.747 41.1673V43.4565C33.747 43.9743 34.08 44.394 34.4908 44.394H40.0787C40.4893 44.394 40.8224 43.9743 40.8224 43.4565V41.1673C40.8224 40.2188 40.4066 39.3907 39.7931 38.956ZM37.2847 34.3716C38.2165 34.3716 38.9747 35.3272 38.9747 36.5019C38.9747 37.6764 38.2166 38.6321 37.2847 38.6321C36.3529 38.6321 35.5948 37.6765 35.5948 36.5019C35.5948 35.3273 36.3529 34.3716 37.2847 34.3716ZM39.3349 42.519H35.2345V41.1673C35.2345 40.8033 35.4694 40.5071 35.7582 40.5071H38.8113C39.1001 40.5071 39.3349 40.8033 39.3349 41.1673V42.519Z" fill="url(#paint6_linear_41_399)"/>
<path d="M45.0169 45.4999H29.5528C29.142 45.4999 28.809 45.9197 28.809 46.4374V50.2812C28.809 50.799 29.142 51.2187 29.5528 51.2187H45.0169C45.4275 51.2187 45.7606 50.799 45.7606 50.2812V46.4374C45.7607 45.9197 45.4276 45.4999 45.0169 45.4999ZM30.2965 49.3437V47.3749H44.2732V49.3437H30.2965Z" fill="url(#paint7_linear_41_399)"/>
<path d="M45.0169 52.2499H29.5528C29.142 52.2499 28.809 52.6697 28.809 53.1874V57.0312C28.809 57.549 29.142 57.9687 29.5528 57.9687H45.0169C45.4275 57.9687 45.7606 57.549 45.7606 57.0312V53.1874C45.7607 52.6697 45.4276 52.2499 45.0169 52.2499ZM30.2965 56.0937V54.1249H44.2732V56.0937H30.2965Z" fill="url(#paint8_linear_41_399)"/>
<defs>
<linearGradient id="paint0_linear_41_399" x1="25.437" y1="19.8112" x2="67.312" y2="43.8081" gradientUnits="userSpaceOnUse">
<stop offset="0.0271195" stop-color="#6C48D3"/>
<stop offset="0.287564" stop-color="#4D4DE2"/>
<stop offset="0.808912" stop-color="#3778FC"/>
<stop offset="0.967351" stop-color="#0370FF"/>
</linearGradient>
<linearGradient id="paint1_linear_41_399" x1="41.0837" y1="26.1721" x2="42.9736" y2="27.912" gradientUnits="userSpaceOnUse">
<stop offset="0.0271195" stop-color="#6C48D3"/>
<stop offset="0.287564" stop-color="#4D4DE2"/>
<stop offset="0.808912" stop-color="#3778FC"/>
<stop offset="0.967351" stop-color="#0370FF"/>
</linearGradient>
<linearGradient id="paint2_linear_41_399" x1="31.9982" y1="26.1725" x2="32.7558" y2="29.8063" gradientUnits="userSpaceOnUse">
<stop offset="0.0271195" stop-color="#6C48D3"/>
<stop offset="0.287564" stop-color="#4D4DE2"/>
<stop offset="0.808912" stop-color="#3778FC"/>
<stop offset="0.967351" stop-color="#0370FF"/>
</linearGradient>
<linearGradient id="paint3_linear_41_399" x1="35.5611" y1="65.7033" x2="37.0178" y2="68.8125" gradientUnits="userSpaceOnUse">
<stop offset="0.0271195" stop-color="#6C48D3"/>
<stop offset="0.287564" stop-color="#4D4DE2"/>
<stop offset="0.808912" stop-color="#3778FC"/>
<stop offset="0.967351" stop-color="#0370FF"/>
</linearGradient>
<linearGradient id="paint4_linear_41_399" x1="28.8682" y1="59.0037" x2="30.757" y2="60.7437" gradientUnits="userSpaceOnUse">
<stop offset="0.0271195" stop-color="#6C48D3"/>
<stop offset="0.287564" stop-color="#4D4DE2"/>
<stop offset="0.808912" stop-color="#3778FC"/>
<stop offset="0.967351" stop-color="#0370FF"/>
</linearGradient>
<linearGradient id="paint5_linear_41_399" x1="31.6947" y1="59.0029" x2="32.1262" y2="62.7449" gradientUnits="userSpaceOnUse">
<stop offset="0.0271195" stop-color="#6C48D3"/>
<stop offset="0.287564" stop-color="#4D4DE2"/>
<stop offset="0.808912" stop-color="#3778FC"/>
<stop offset="0.967351" stop-color="#0370FF"/>
</linearGradient>
<linearGradient id="paint6_linear_41_399" x1="33.747" y1="31.7063" x2="44.9957" y2="39.4719" gradientUnits="userSpaceOnUse">
<stop offset="0.0271195" stop-color="#6C48D3"/>
<stop offset="0.287564" stop-color="#4D4DE2"/>
<stop offset="0.808912" stop-color="#3778FC"/>
<stop offset="0.967351" stop-color="#0370FF"/>
</linearGradient>
<linearGradient id="paint7_linear_41_399" x1="28.809" y1="45.12" x2="31.9082" y2="55.7843" gradientUnits="userSpaceOnUse">
<stop offset="0.0271195" stop-color="#6C48D3"/>
<stop offset="0.287564" stop-color="#4D4DE2"/>
<stop offset="0.808912" stop-color="#3778FC"/>
<stop offset="0.967351" stop-color="#0370FF"/>
</linearGradient>
<linearGradient id="paint8_linear_41_399" x1="28.809" y1="51.87" x2="31.9082" y2="62.5343" gradientUnits="userSpaceOnUse">
<stop offset="0.0271195" stop-color="#6C48D3"/>
<stop offset="0.287564" stop-color="#4D4DE2"/>
<stop offset="0.808912" stop-color="#3778FC"/>
<stop offset="0.967351" stop-color="#0370FF"/>
</linearGradient>
</defs>
</svg>
