<svg width="76" height="95" viewBox="0 0 76 95" fill="none" xmlns="http://www.w3.org/2000/svg">
<rect x="0.580902" y="0.125" width="74.5698" height="94" rx="10" fill="#FAFAFA"/>
<g clip-path="url(#clip0_41_397)">
<path d="M48.0994 59.925H46.8301V63.125H35.4066V64.725H46.8301V67.125C46.8301 68.4504 45.9776 69.525 44.9262 69.525H30.9642C30.284 69.5238 29.6555 69.0668 29.3141 68.325L28.2149 69.125C28.7838 70.3605 29.8309 71.1223 30.9642 71.125H44.9262C46.6779 71.1223 48.0972 69.3332 48.0994 67.125V59.925Z" fill="url(#paint0_linear_41_397)"/>
<path d="M37.3105 66.325H38.5798V67.925H37.3105V66.325Z" fill="url(#paint1_linear_41_397)"/>
<path d="M41.1183 44.725V43.125H39.1822C38.8658 38.0199 35.6486 33.9645 31.5988 33.5656V31.125H30.3295V33.5656C29.9019 33.607 29.4776 33.6906 29.0602 33.8152V29.525H39.2144V27.925H29.0602V27.125C29.0602 25.7996 29.9127 24.725 30.9641 24.725H44.9261C45.3897 24.725 45.8375 24.9383 46.1852 25.325L47.025 24.125C46.4455 23.4801 45.699 23.1246 44.9261 23.125H30.9641C29.2124 23.1277 27.7931 24.9168 27.7909 27.125V34.325C24.9332 35.834 22.9856 39.2312 22.7461 43.125H20.8099V44.725H22.7476C23.047 49.8398 26.2719 53.9078 30.3295 54.2883V56.725H31.5988V54.2883C35.6564 53.9078 38.8813 49.8398 39.1806 44.725H41.1183ZM30.3295 51.125V52.6883C29.4442 52.5879 28.5827 52.2742 27.7909 51.7648V50.325C27.7909 48.116 29.2117 46.325 30.9641 46.325C32.7165 46.325 34.1373 48.116 34.1373 50.325V51.7648C33.3459 52.275 32.4841 52.5891 31.5988 52.6906V51.125H30.3295ZM29.0602 42.325C29.0602 40.9996 29.9127 39.925 30.9641 39.925C32.0156 39.925 32.868 40.9996 32.868 42.325C32.868 43.6504 32.0156 44.725 30.9641 44.725C29.9127 44.725 29.0602 43.6504 29.0602 42.325ZM35.6179 50.4852C35.5494 50.5648 35.4763 50.6289 35.4066 50.7027V50.325C35.405 48.2352 34.4804 46.3203 33.0084 45.3586C34.0279 44.2762 34.402 42.5059 33.9449 40.9277C33.4878 39.3492 32.2969 38.2992 30.9641 38.2992C29.6313 38.2992 28.4405 39.3492 27.9834 40.9277C27.5263 42.5059 27.9003 44.2762 28.9198 45.3586C27.4479 46.3203 26.5232 48.2352 26.5217 50.325V50.7066C26.4513 50.634 26.3782 50.5656 26.3103 50.4891C24.9952 49.0023 24.1756 46.943 24.0169 44.725H25.2524V43.125H24.0153C24.3255 38.9016 26.9791 35.5566 30.3295 35.1656V36.725H31.5988V35.1656C34.9492 35.5566 37.6027 38.9016 37.9129 43.125H36.6759V44.725H37.9114C37.7527 46.943 36.9331 49.0023 35.6179 50.4891V50.4852Z" fill="url(#paint2_linear_41_397)"/>
<path d="M55.0804 37.525C55.4308 37.525 55.715 37.1668 55.715 36.725V27.125C55.715 26.6832 55.4308 26.325 55.0804 26.325H41.1183C40.7679 26.325 40.4837 26.6832 40.4837 27.125V36.725C40.4837 37.1668 40.7679 37.525 41.1183 37.525H55.0804ZM41.753 27.925H54.4457V35.925H41.753V27.925Z" fill="url(#paint3_linear_41_397)"/>
<path d="M43.0223 29.525H45.5608V31.125H43.0223V29.525Z" fill="url(#paint4_linear_41_397)"/>
<path d="M46.8301 29.525H53.1765V31.125H46.8301V29.525Z" fill="url(#paint5_linear_41_397)"/>
<path d="M43.0223 32.725H53.1765V34.325H43.0223V32.725Z" fill="url(#paint6_linear_41_397)"/>
<path d="M54.9682 39.125C54.4768 39.1262 54.0026 39.3535 53.6354 39.7648L48.0994 45.9172V39.125H46.8301V47.125H47.0136L43.4031 51.141C41.0542 51.3105 39.2173 53.759 39.2145 56.725V58.1363C39.217 58.9301 38.8609 59.657 38.2963 60.009C38.0326 60.1746 37.8941 60.5473 37.9616 60.9086C38.0292 61.2699 38.2851 61.5254 38.5798 61.525H43.0223C45.3752 61.5215 47.3176 59.2059 47.4521 56.2449L56.4804 43.3473C57.0045 42.598 57.1318 41.5312 56.8055 40.6207C56.4795 39.7102 55.7606 39.125 54.9682 39.125V39.125ZM43.0223 59.925H40.1199C40.3595 59.3773 40.4847 58.7617 40.4837 58.1363V56.725C40.4859 54.641 41.7552 52.907 43.4031 52.7379L46.1853 56.2449C46.0514 58.3223 44.6755 59.9227 43.0223 59.925ZM55.5285 42.2891L46.8016 54.757L44.5835 51.9617L54.4743 40.9602C54.7702 40.6328 55.2168 40.6512 55.4953 41.002C55.7736 41.3531 55.7882 41.916 55.5285 42.2891Z" fill="url(#paint7_linear_41_397)"/>
<path d="M19.5406 67.125H33.5027C33.8531 67.125 34.1373 66.7668 34.1373 66.325V59.925C34.1373 59.4832 33.8531 59.125 33.5027 59.125H29.0602V55.125H27.7909V59.125H19.5406C19.1902 59.125 18.906 59.4832 18.906 59.925V66.325C18.906 66.7668 19.1902 67.125 19.5406 67.125ZM20.1753 60.725H32.868V65.525H20.1753V60.725Z" fill="url(#paint8_linear_41_397)"/>
<path d="M21.4446 62.325H24.6178V63.925H21.4446V62.325Z" fill="url(#paint9_linear_41_397)"/>
<path d="M25.8871 62.325H31.5988V63.925H25.8871V62.325Z" fill="url(#paint10_linear_41_397)"/>
<path d="M19.5406 34.325H25.887C26.2375 34.325 26.5216 33.9668 26.5216 33.525V27.125C26.5216 26.6832 26.2375 26.325 25.887 26.325H19.5406C19.1902 26.325 18.906 26.6832 18.906 27.125V33.525C18.906 33.9668 19.1902 34.325 19.5406 34.325ZM20.1753 27.925H25.2524V32.725H20.1753V27.925Z" fill="url(#paint11_linear_41_397)"/>
<path d="M21.4446 29.525H23.9832V31.125H21.4446V29.525Z" fill="url(#paint12_linear_41_397)"/>
</g>
<defs>
<linearGradient id="paint0_linear_41_397" x1="28.2149" y1="59.1809" x2="37.1105" y2="77.5143" gradientUnits="userSpaceOnUse">
<stop offset="0.0271195" stop-color="#6C48D3"/>
<stop offset="0.287564" stop-color="#4D4DE2"/>
<stop offset="0.808912" stop-color="#3778FC"/>
<stop offset="0.967351" stop-color="#0370FF"/>
</linearGradient>
<linearGradient id="paint1_linear_41_397" x1="37.3105" y1="66.2187" x2="38.9229" y2="67.7035" gradientUnits="userSpaceOnUse">
<stop offset="0.0271195" stop-color="#6C48D3"/>
<stop offset="0.287564" stop-color="#4D4DE2"/>
<stop offset="0.808912" stop-color="#3778FC"/>
<stop offset="0.967351" stop-color="#0370FF"/>
</linearGradient>
<linearGradient id="paint2_linear_41_397" x1="20.8099" y1="20.8928" x2="54.6183" y2="51.513" gradientUnits="userSpaceOnUse">
<stop offset="0.0271195" stop-color="#6C48D3"/>
<stop offset="0.287564" stop-color="#4D4DE2"/>
<stop offset="0.808912" stop-color="#3778FC"/>
<stop offset="0.967351" stop-color="#0370FF"/>
</linearGradient>
<linearGradient id="paint3_linear_41_397" x1="40.4837" y1="25.581" x2="50.7226" y2="41.7448" gradientUnits="userSpaceOnUse">
<stop offset="0.0271195" stop-color="#6C48D3"/>
<stop offset="0.287564" stop-color="#4D4DE2"/>
<stop offset="0.808912" stop-color="#3778FC"/>
<stop offset="0.967351" stop-color="#0370FF"/>
</linearGradient>
<linearGradient id="paint4_linear_41_397" x1="43.0223" y1="29.4187" x2="44.3791" y2="31.9177" gradientUnits="userSpaceOnUse">
<stop offset="0.0271195" stop-color="#6C48D3"/>
<stop offset="0.287564" stop-color="#4D4DE2"/>
<stop offset="0.808912" stop-color="#3778FC"/>
<stop offset="0.967351" stop-color="#0370FF"/>
</linearGradient>
<linearGradient id="paint5_linear_41_397" x1="46.8301" y1="29.4187" x2="47.5012" y2="32.5086" gradientUnits="userSpaceOnUse">
<stop offset="0.0271195" stop-color="#6C48D3"/>
<stop offset="0.287564" stop-color="#4D4DE2"/>
<stop offset="0.808912" stop-color="#3778FC"/>
<stop offset="0.967351" stop-color="#0370FF"/>
</linearGradient>
<linearGradient id="paint6_linear_41_397" x1="43.0223" y1="32.6187" x2="43.4535" y2="35.7958" gradientUnits="userSpaceOnUse">
<stop offset="0.0271195" stop-color="#6C48D3"/>
<stop offset="0.287564" stop-color="#4D4DE2"/>
<stop offset="0.808912" stop-color="#3778FC"/>
<stop offset="0.967351" stop-color="#0370FF"/>
</linearGradient>
<linearGradient id="paint7_linear_41_397" x1="37.9446" y1="37.6369" x2="60.5922" y2="59.9831" gradientUnits="userSpaceOnUse">
<stop offset="0.0271195" stop-color="#6C48D3"/>
<stop offset="0.287564" stop-color="#4D4DE2"/>
<stop offset="0.808912" stop-color="#3778FC"/>
<stop offset="0.967351" stop-color="#0370FF"/>
</linearGradient>
<linearGradient id="paint8_linear_41_397" x1="18.906" y1="54.3278" x2="30.1821" y2="70.9422" gradientUnits="userSpaceOnUse">
<stop offset="0.0271195" stop-color="#6C48D3"/>
<stop offset="0.287564" stop-color="#4D4DE2"/>
<stop offset="0.808912" stop-color="#3778FC"/>
<stop offset="0.967351" stop-color="#0370FF"/>
</linearGradient>
<linearGradient id="paint9_linear_41_397" x1="21.4446" y1="62.2187" x2="22.627" y2="64.9408" gradientUnits="userSpaceOnUse">
<stop offset="0.0271195" stop-color="#6C48D3"/>
<stop offset="0.287564" stop-color="#4D4DE2"/>
<stop offset="0.808912" stop-color="#3778FC"/>
<stop offset="0.967351" stop-color="#0370FF"/>
</linearGradient>
<linearGradient id="paint10_linear_41_397" x1="25.8871" y1="62.2187" x2="26.6249" y2="65.2763" gradientUnits="userSpaceOnUse">
<stop offset="0.0271195" stop-color="#6C48D3"/>
<stop offset="0.287564" stop-color="#4D4DE2"/>
<stop offset="0.808912" stop-color="#3778FC"/>
<stop offset="0.967351" stop-color="#0370FF"/>
</linearGradient>
<linearGradient id="paint11_linear_41_397" x1="18.906" y1="25.7935" x2="26.9549" y2="34.6882" gradientUnits="userSpaceOnUse">
<stop offset="0.0271195" stop-color="#6C48D3"/>
<stop offset="0.287564" stop-color="#4D4DE2"/>
<stop offset="0.808912" stop-color="#3778FC"/>
<stop offset="0.967351" stop-color="#0370FF"/>
</linearGradient>
<linearGradient id="paint12_linear_41_397" x1="21.4446" y1="29.4187" x2="22.8014" y2="31.9177" gradientUnits="userSpaceOnUse">
<stop offset="0.0271195" stop-color="#6C48D3"/>
<stop offset="0.287564" stop-color="#4D4DE2"/>
<stop offset="0.808912" stop-color="#3778FC"/>
<stop offset="0.967351" stop-color="#0370FF"/>
</linearGradient>
<clipPath id="clip0_41_397">
<rect width="38.0782" height="48" fill="white" transform="translate(18.8267 23.125)"/>
</clipPath>
</defs>
</svg>
