<svg width="75" height="95" viewBox="0 0 75 95" fill="none" xmlns="http://www.w3.org/2000/svg">
<rect x="0.0715179" y="0.875" width="74.5698" height="94" rx="10" fill="#FAFAFA"/>
<g clip-path="url(#clip0_41_398)">
<path d="M53.8943 25.488H20.7805C19.4118 25.488 18.2983 26.8916 18.2983 28.6169V65.383C18.2983 67.1083 19.4118 68.512 20.7805 68.512H53.8943C55.2629 68.512 56.3765 67.1083 56.3765 65.383V28.6169C56.3765 26.8916 55.2629 25.488 53.8943 25.488ZM54.889 65.3829C54.889 66.0743 54.4428 66.6369 53.8943 66.6369H20.7805C20.2319 66.6369 19.7857 66.0744 19.7857 65.3829V34.4518H54.889V65.3829ZM54.889 32.5769H19.7857V28.6169C19.7857 27.9255 20.2319 27.3629 20.7805 27.3629H53.8943C54.4428 27.3629 54.889 27.9254 54.889 28.6169V32.5769V32.5769Z" fill="url(#paint0_linear_41_398)"/>
<path d="M52.5752 29.7978C52.5664 29.7378 52.5515 29.6787 52.5329 29.6225C52.5143 29.5662 52.492 29.5109 52.4653 29.4603C52.4378 29.4087 52.4065 29.3609 52.3723 29.3178C52.3381 29.2747 52.3001 29.2353 52.2592 29.2015C52.2191 29.1678 52.1759 29.1387 52.1313 29.1153C52.0859 29.0919 52.0391 29.074 51.9922 29.0619C51.8963 29.0375 51.7974 29.0375 51.7014 29.0619C51.6538 29.074 51.607 29.0919 51.5624 29.1153C51.5171 29.1387 51.4739 29.1678 51.4338 29.2015C51.3929 29.2353 51.3549 29.2747 51.3206 29.3178C51.2864 29.3609 51.2552 29.4087 51.2285 29.4603C51.2017 29.5109 51.1786 29.5662 51.16 29.6225C51.1414 29.6787 51.1274 29.7378 51.1177 29.7978C51.108 29.8578 51.1028 29.9197 51.1028 29.9806C51.1028 30.0425 51.108 30.1034 51.1177 30.1644C51.1274 30.2244 51.1414 30.2825 51.16 30.3397C51.1786 30.3959 51.2017 30.4503 51.2285 30.5009C51.2552 30.5525 51.2864 30.6003 51.3206 30.6434C51.3549 30.6865 51.3929 30.7259 51.4338 30.7606C51.4739 30.7944 51.5171 30.8234 51.5624 30.8469C51.6071 30.8703 51.6538 30.8881 51.7014 30.9003C51.7491 30.9125 51.7981 30.9181 51.8465 30.9181C52.0421 30.9181 52.2339 30.8187 52.3723 30.6434C52.4065 30.6003 52.4377 30.5525 52.4652 30.5009C52.4919 30.4503 52.5142 30.3959 52.5328 30.3397C52.5514 30.2825 52.5663 30.2244 52.5752 30.1644C52.5849 30.1034 52.5901 30.0425 52.5901 29.9806C52.5901 29.9197 52.5849 29.8578 52.5752 29.7978Z" fill="url(#paint1_linear_41_398)"/>
<path d="M49.0288 29.0434H34.4309C34.0202 29.0434 33.6872 29.4631 33.6872 29.9809C33.6872 30.4987 34.0202 30.9184 34.4309 30.9184H49.0288C49.4395 30.9184 49.7726 30.4987 49.7726 29.9809C49.7726 29.4631 49.4396 29.0434 49.0288 29.0434Z" fill="url(#paint2_linear_41_398)"/>
<path d="M26.3021 29.7978C26.2925 29.7378 26.2783 29.6787 26.2597 29.6225C26.2411 29.5662 26.218 29.5109 26.1913 29.4603C26.1637 29.4087 26.1333 29.3609 26.0983 29.3178C26.0641 29.2747 26.0262 29.2353 25.9852 29.2015C25.945 29.1678 25.902 29.1387 25.8573 29.1153C25.812 29.0919 25.765 29.074 25.7182 29.0619C25.6223 29.0375 25.5233 29.0375 25.4274 29.0619C25.3798 29.074 25.3329 29.0919 25.2884 29.1153C25.243 29.1387 25.1999 29.1678 25.1597 29.2015C25.1188 29.2353 25.0809 29.2747 25.0467 29.3178C25.0125 29.3609 24.9812 29.4087 24.9545 29.4603C24.9277 29.5109 24.9046 29.5662 24.886 29.6225C24.8675 29.6787 24.8533 29.7378 24.8437 29.7978C24.834 29.8578 24.8288 29.9197 24.8288 29.9806C24.8288 30.0415 24.834 30.1034 24.8437 30.1644C24.8533 30.2234 24.8675 30.2825 24.886 30.3397C24.9046 30.3959 24.9277 30.4503 24.9545 30.5009C24.9812 30.5525 25.0125 30.6003 25.0467 30.6434C25.0809 30.6865 25.1188 30.7259 25.1597 30.7606C25.1999 30.7944 25.243 30.8234 25.2884 30.8469C25.333 30.8703 25.3798 30.8881 25.4274 30.9003C25.4751 30.9125 25.5242 30.9181 25.5724 30.9181C25.6215 30.9181 25.6699 30.9125 25.7182 30.9003C25.765 30.8881 25.812 30.8703 25.8573 30.8469C25.902 30.8234 25.945 30.7944 25.9852 30.7606C26.0262 30.7259 26.0641 30.6865 26.0983 30.6434C26.1325 30.6003 26.1637 30.5525 26.1913 30.5009C26.218 30.4503 26.2411 30.3959 26.2597 30.3397C26.2783 30.2825 26.2924 30.2244 26.3021 30.1644C26.3117 30.1034 26.3161 30.0425 26.3161 29.9806C26.3161 29.9197 26.3117 29.8578 26.3021 29.7978Z" fill="url(#paint3_linear_41_398)"/>
<path d="M29.0465 29.7978C29.0375 29.7378 29.0227 29.6787 29.0041 29.6225C28.9855 29.5653 28.9624 29.5109 28.9357 29.4603C28.9089 29.4087 28.8776 29.3609 28.8434 29.3178C28.8092 29.2747 28.7712 29.2353 28.7303 29.2015C28.6902 29.1678 28.647 29.1387 28.6017 29.1153C28.557 29.0919 28.5103 29.074 28.4627 29.0619C28.3667 29.0375 28.2685 29.0375 28.1719 29.0619C28.125 29.074 28.0782 29.0919 28.0328 29.1153C27.9882 29.1387 27.945 29.1678 27.9049 29.2015C27.864 29.2353 27.826 29.2747 27.7917 29.3178C27.7575 29.3609 27.7263 29.4087 27.6988 29.4603C27.6721 29.5109 27.649 29.5653 27.6304 29.6225C27.6118 29.6787 27.5977 29.7378 27.588 29.7978C27.5784 29.8578 27.5739 29.9197 27.5739 29.9806C27.5739 30.2281 27.6535 30.469 27.7918 30.6434C27.826 30.6865 27.864 30.7259 27.9049 30.7606C27.9451 30.7944 27.9882 30.8234 28.0329 30.8469C28.0782 30.8703 28.1251 30.8881 28.1719 30.9003C28.2203 30.9125 28.2694 30.9181 28.3177 30.9181C28.366 30.9181 28.4152 30.9125 28.4627 30.9003C28.5103 30.8881 28.5572 30.8703 28.6018 30.8469C28.6471 30.8234 28.6902 30.7944 28.7304 30.7606C28.7713 30.7259 28.8093 30.6865 28.8435 30.6434C28.9818 30.469 29.0614 30.2281 29.0614 29.9806C29.0614 29.9197 29.0562 29.8578 29.0465 29.7978Z" fill="url(#paint4_linear_41_398)"/>
<path d="M23.3539 29.3178C23.1815 29.1003 22.9242 29.0009 22.6824 29.0619C22.6355 29.0741 22.5887 29.0919 22.5434 29.1153C22.4987 29.1387 22.4555 29.1678 22.4154 29.2016C22.3745 29.2353 22.3365 29.2747 22.3023 29.3178C22.2681 29.3609 22.2369 29.4087 22.2094 29.4603C22.1826 29.5109 22.1595 29.5653 22.1409 29.6225C22.1224 29.6787 22.1082 29.7378 22.0986 29.7978C22.0889 29.8578 22.0845 29.9197 22.0845 29.9806C22.0845 30.0425 22.089 30.1034 22.0986 30.1644C22.1082 30.2234 22.1224 30.2825 22.1409 30.3397C22.1595 30.3959 22.1826 30.4503 22.2094 30.5009C22.2369 30.5525 22.2681 30.6003 22.3023 30.6434C22.3365 30.6875 22.3745 30.7259 22.4154 30.7606C22.4555 30.7944 22.4987 30.8234 22.5434 30.8469C22.5887 30.8703 22.6355 30.8881 22.6824 30.9003C22.7307 30.9125 22.7799 30.9181 22.8282 30.9181C23.0238 30.9181 23.2157 30.8187 23.3539 30.6434C23.4923 30.4691 23.5719 30.2272 23.5719 29.9806C23.5719 29.7341 23.4924 29.4922 23.3539 29.3178Z" fill="url(#paint5_linear_41_398)"/>
<path d="M52.3742 36.5359H22.3006C21.8899 36.5359 21.5569 36.9556 21.5569 37.4734V63.5052C21.5569 64.023 21.8899 64.4427 22.3006 64.4427H52.3742C52.7848 64.4427 53.1179 64.023 53.1179 63.5052V37.4734C53.1179 36.9557 52.7848 36.5359 52.3742 36.5359ZM51.6304 62.5678H23.0443V38.4109H51.6304V62.5678Z" fill="url(#paint6_linear_41_398)"/>
<path d="M35.9759 40.0723H25.0779C24.6672 40.0723 24.3342 40.492 24.3342 41.0098V60.1039C24.3342 60.6217 24.6672 61.0414 25.0779 61.0414H35.9759C36.3866 61.0414 36.7196 60.6217 36.7196 60.1039V41.0098C36.7196 40.4922 36.3866 40.0723 35.9759 40.0723ZM35.2322 59.1665H25.8216V41.9473H35.2322V59.1665Z" fill="url(#paint7_linear_41_398)"/>
<path d="M31.37 50.5569L34.0759 44.172C34.2695 43.7154 34.1327 43.1474 33.7704 42.9034C33.4082 42.6594 32.9574 42.8319 32.764 43.2885L30.5268 48.5672L28.2897 43.2885C28.0962 42.8319 27.6455 42.6595 27.2833 42.9034C26.921 43.1474 26.7842 43.7154 26.9778 44.172L29.6837 50.5569L26.9778 56.9417C26.7842 57.3984 26.921 57.9664 27.2833 58.2103C27.3948 58.2855 27.5148 58.3212 27.633 58.3212C27.8987 58.3212 28.1557 58.1413 28.2897 57.8252L30.5268 52.5465L32.764 57.8252C32.8979 58.1413 33.155 58.3212 33.4206 58.3212C33.5389 58.3212 33.6588 58.2855 33.7704 58.2103C34.1327 57.9663 34.2695 57.3984 34.0759 56.9417L31.37 50.5569Z" fill="url(#paint8_linear_41_398)"/>
<path d="M49.8412 40.0723H38.9433C38.9367 40.0723 38.9304 40.0733 38.9239 40.0735C38.9099 40.074 38.8958 40.0747 38.8818 40.0762C38.8699 40.0774 38.8582 40.0792 38.8464 40.0812C38.8348 40.0831 38.8233 40.0852 38.8118 40.0878C38.7985 40.0908 38.7852 40.0944 38.7721 40.0982C38.7623 40.1011 38.7526 40.1042 38.743 40.1077C38.7291 40.1126 38.7155 40.1179 38.7021 40.1237C38.6928 40.1277 38.6838 40.132 38.6746 40.1364C38.6617 40.1428 38.6488 40.1494 38.6362 40.1566C38.6265 40.1622 38.6169 40.1681 38.6073 40.1742C38.5961 40.1813 38.5851 40.1887 38.5742 40.1966C38.5636 40.2043 38.5531 40.2123 38.5428 40.2207C38.5335 40.2282 38.5244 40.2358 38.5155 40.2437C38.5043 40.2536 38.4935 40.2639 38.4827 40.2746C38.4749 40.2824 38.4672 40.2903 38.4597 40.2985C38.4491 40.31 38.4386 40.3219 38.4285 40.3343C38.4211 40.3432 38.4139 40.3524 38.4068 40.3617C38.3976 40.3739 38.3886 40.3862 38.3798 40.3991C38.3722 40.4103 38.3648 40.422 38.3575 40.4337C38.3503 40.4454 38.3432 40.4571 38.3363 40.4694C38.3282 40.4838 38.3205 40.4987 38.3131 40.5138C38.3097 40.5208 38.3057 40.5271 38.3024 40.5343C38.3005 40.5383 38.2991 40.5425 38.2973 40.5465C38.2898 40.563 38.283 40.5799 38.2764 40.597C38.2721 40.6081 38.2675 40.6192 38.2636 40.6305C38.2579 40.6466 38.2529 40.6631 38.248 40.6796C38.2441 40.6925 38.2401 40.7055 38.2367 40.7186C38.2329 40.7331 38.2298 40.7479 38.2266 40.7626C38.2232 40.7783 38.2198 40.794 38.217 40.8097C38.2149 40.8223 38.2132 40.8351 38.2114 40.8479C38.2089 40.8661 38.2065 40.8845 38.2047 40.9029C38.2037 40.9142 38.2032 40.9258 38.2024 40.9373C38.2012 40.9572 38.2003 40.977 38.2001 40.9967C38.2 41.0011 38.1995 41.0054 38.1995 41.0098V49.0958C38.1995 49.6136 38.5326 50.0333 38.9433 50.0333H49.8388C49.8394 50.0333 49.8399 50.0334 49.8405 50.0334C49.8423 50.0334 49.844 50.033 49.8458 50.0329C49.8737 50.0327 49.9012 50.0302 49.9282 50.0263C49.936 50.0251 49.9436 50.0233 49.9514 50.0219C49.9736 50.0177 49.9955 50.0124 50.0169 50.0058C50.0244 50.0036 50.0317 50.0012 50.0391 49.9986C50.0628 49.9904 50.086 49.9807 50.1087 49.9696C50.1132 49.9675 50.1178 49.9657 50.1223 49.9634C50.1494 49.9494 50.1757 49.9336 50.2011 49.9158C50.2066 49.912 50.2118 49.9075 50.2172 49.9034C50.2363 49.8893 50.2549 49.8742 50.2729 49.8581C50.2813 49.8506 50.2894 49.8428 50.2976 49.8347C50.3137 49.8189 50.3292 49.8022 50.3441 49.7849C50.3506 49.7774 50.3573 49.7703 50.3636 49.7625C50.3837 49.7375 50.4026 49.711 50.4203 49.6831C50.4251 49.6756 50.4295 49.6677 50.434 49.66C50.4485 49.6359 50.462 49.6109 50.4746 49.5851C50.477 49.5802 50.4799 49.5761 50.4821 49.5712C50.484 49.5672 50.4854 49.5629 50.4873 49.5589C50.4947 49.5424 50.5016 49.5255 50.5082 49.5085C50.5125 49.4973 50.517 49.4863 50.521 49.475C50.5266 49.4589 50.5316 49.4424 50.5366 49.4259C50.5405 49.4129 50.5445 49.4 50.5479 49.3869C50.5517 49.3724 50.5547 49.3575 50.5579 49.3428C50.5613 49.3272 50.5648 49.3115 50.5675 49.2958C50.5697 49.2832 50.5713 49.2704 50.5731 49.2576C50.5756 49.2393 50.5781 49.2209 50.5798 49.2026C50.5808 49.1912 50.5814 49.1797 50.5821 49.1682C50.5833 49.1483 50.5843 49.1285 50.5845 49.1087C50.5846 49.1043 50.585 49.1001 50.585 49.0957V41.0097C50.5849 40.4922 50.2519 40.0723 49.8412 40.0723ZM39.687 48.1584V42.6495L47.1116 48.1584H39.687ZM49.0975 47.4563L41.6729 41.9475H49.0975V47.4563Z" fill="url(#paint9_linear_41_398)"/>
<path d="M49.8413 51.0806H38.9433C38.937 51.0806 38.9309 51.0816 38.9246 51.0818C38.9101 51.0823 38.8958 51.083 38.8813 51.0845C38.8698 51.0857 38.8584 51.0874 38.8471 51.0893C38.8351 51.0913 38.8232 51.0934 38.8113 51.0961C38.7983 51.099 38.7854 51.1025 38.7726 51.1063C38.7625 51.1093 38.7524 51.1125 38.7423 51.1161C38.7289 51.1209 38.7156 51.126 38.7025 51.1318C38.6929 51.1359 38.6835 51.1403 38.6741 51.1449C38.6614 51.1511 38.6489 51.1576 38.6367 51.1647C38.6266 51.1704 38.6167 51.1765 38.6068 51.1828C38.5959 51.1898 38.5851 51.197 38.5745 51.2046C38.5636 51.2125 38.5529 51.2207 38.5423 51.2293C38.5333 51.2366 38.5244 51.244 38.5157 51.2518C38.5044 51.2618 38.4933 51.2723 38.4823 51.2832C38.4747 51.2908 38.4672 51.2985 38.4597 51.3065C38.4489 51.3181 38.4384 51.3302 38.428 51.3428C38.4208 51.3516 38.4137 51.3606 38.4068 51.3697C38.3975 51.382 38.3883 51.3944 38.3796 51.4075C38.3719 51.4186 38.3646 51.4301 38.3574 51.4417C38.3501 51.4535 38.343 51.4653 38.3361 51.4776C38.3279 51.492 38.3204 51.5068 38.3129 51.5219C38.3095 51.5289 38.3056 51.5353 38.3022 51.5424C38.3004 51.5464 38.2989 51.5506 38.2971 51.5547C38.2896 51.5712 38.2828 51.588 38.2762 51.6051C38.2719 51.6163 38.2673 51.6273 38.2634 51.6386C38.2577 51.6547 38.2528 51.6712 38.2478 51.6877C38.2439 51.7006 38.2399 51.7136 38.2365 51.7267C38.2327 51.7412 38.2296 51.756 38.2264 51.7708C38.223 51.7864 38.2196 51.8021 38.2168 51.8178C38.2147 51.8304 38.213 51.8432 38.2113 51.856C38.2087 51.8743 38.2063 51.8926 38.2046 51.911C38.2035 51.9223 38.203 51.9339 38.2023 51.9454C38.2011 51.9653 38.2001 51.9851 38.1999 52.0048C38.1998 52.0093 38.1994 52.0135 38.1994 52.0179V60.1039C38.1994 60.6217 38.5324 61.0414 38.9431 61.0414H49.8386C49.8392 61.0414 49.8398 61.0415 49.8403 61.0415C49.8421 61.0415 49.8439 61.0411 49.8456 61.041C49.8735 61.0408 49.901 61.0383 49.928 61.0344C49.9358 61.0333 49.9434 61.0314 49.9512 61.03C49.9734 61.0258 49.9953 61.0205 50.0168 61.0139C50.0242 61.0117 50.0316 61.0093 50.0389 61.0067C50.0627 60.9985 50.0859 60.9888 50.1085 60.9778C50.113 60.9756 50.1176 60.9738 50.1221 60.9715C50.1492 60.9575 50.1756 60.9418 50.2009 60.9239C50.2064 60.9201 50.2116 60.9156 50.217 60.9116C50.2362 60.8974 50.2548 60.8823 50.2727 60.8662C50.2811 60.8587 50.2893 60.8509 50.2974 60.8428C50.3135 60.827 50.329 60.8103 50.3439 60.793C50.3504 60.7855 50.3571 60.7784 50.3634 60.7707C50.3835 60.7456 50.4024 60.7191 50.4202 60.6913C50.4249 60.6838 50.4293 60.6758 50.4338 60.6681C50.4483 60.644 50.4618 60.619 50.4744 60.5932C50.4768 60.5883 50.4797 60.5842 50.482 60.5793C50.4838 60.5753 50.4852 60.5711 50.4871 60.567C50.4945 60.5505 50.5014 60.5337 50.508 60.5166C50.5123 60.5054 50.5168 60.4944 50.5208 60.4831C50.5264 60.467 50.5314 60.4505 50.5364 60.434C50.5403 60.4211 50.5443 60.4081 50.5477 60.395C50.5515 60.3805 50.5545 60.3657 50.5577 60.3509C50.5612 60.3353 50.5646 60.3196 50.5673 60.3039C50.5695 60.2913 50.5711 60.2785 50.5729 60.2657C50.5754 60.2474 50.5779 60.2291 50.5796 60.2107C50.5807 60.1993 50.5812 60.1878 50.5819 60.1763C50.5831 60.1564 50.5841 60.1366 50.5843 60.1168C50.5844 60.1124 50.5848 60.1082 50.5848 60.1038V52.0178C50.585 51.5003 50.2519 51.0806 49.8413 51.0806ZM39.687 59.1665V53.6577L47.1116 59.1665H39.687ZM49.0975 58.4643L41.673 52.9555H49.0975V58.4643Z" fill="url(#paint10_linear_41_398)"/>
</g>
<defs>
<linearGradient id="paint0_linear_41_398" x1="18.2983" y1="22.6298" x2="61.7857" y2="67.3087" gradientUnits="userSpaceOnUse">
<stop offset="0.0271195" stop-color="#6C48D3"/>
<stop offset="0.287564" stop-color="#4D4DE2"/>
<stop offset="0.808912" stop-color="#3778FC"/>
<stop offset="0.967351" stop-color="#0370FF"/>
</linearGradient>
<linearGradient id="paint1_linear_41_398" x1="51.1028" y1="28.919" x2="52.9918" y2="30.6589" gradientUnits="userSpaceOnUse">
<stop offset="0.0271195" stop-color="#6C48D3"/>
<stop offset="0.287564" stop-color="#4D4DE2"/>
<stop offset="0.808912" stop-color="#3778FC"/>
<stop offset="0.967351" stop-color="#0370FF"/>
</linearGradient>
<linearGradient id="paint2_linear_41_398" x1="33.6872" y1="28.9188" x2="34.0641" y2="32.6728" gradientUnits="userSpaceOnUse">
<stop offset="0.0271195" stop-color="#6C48D3"/>
<stop offset="0.287564" stop-color="#4D4DE2"/>
<stop offset="0.808912" stop-color="#3778FC"/>
<stop offset="0.967351" stop-color="#0370FF"/>
</linearGradient>
<linearGradient id="paint3_linear_41_398" x1="24.8288" y1="28.919" x2="26.7178" y2="30.659" gradientUnits="userSpaceOnUse">
<stop offset="0.0271195" stop-color="#6C48D3"/>
<stop offset="0.287564" stop-color="#4D4DE2"/>
<stop offset="0.808912" stop-color="#3778FC"/>
<stop offset="0.967351" stop-color="#0370FF"/>
</linearGradient>
<linearGradient id="paint4_linear_41_398" x1="27.5739" y1="28.919" x2="29.463" y2="30.6592" gradientUnits="userSpaceOnUse">
<stop offset="0.0271195" stop-color="#6C48D3"/>
<stop offset="0.287564" stop-color="#4D4DE2"/>
<stop offset="0.808912" stop-color="#3778FC"/>
<stop offset="0.967351" stop-color="#0370FF"/>
</linearGradient>
<linearGradient id="paint5_linear_41_398" x1="22.0845" y1="28.9197" x2="23.973" y2="30.6598" gradientUnits="userSpaceOnUse">
<stop offset="0.0271195" stop-color="#6C48D3"/>
<stop offset="0.287564" stop-color="#4D4DE2"/>
<stop offset="0.808912" stop-color="#3778FC"/>
<stop offset="0.967351" stop-color="#0370FF"/>
</linearGradient>
<linearGradient id="paint6_linear_41_398" x1="21.5569" y1="34.6819" x2="48.7607" y2="70.3962" gradientUnits="userSpaceOnUse">
<stop offset="0.0271195" stop-color="#6C48D3"/>
<stop offset="0.287564" stop-color="#4D4DE2"/>
<stop offset="0.808912" stop-color="#3778FC"/>
<stop offset="0.967351" stop-color="#0370FF"/>
</linearGradient>
<linearGradient id="paint7_linear_41_398" x1="24.3342" y1="38.6792" x2="44.1118" y2="52.2397" gradientUnits="userSpaceOnUse">
<stop offset="0.0271195" stop-color="#6C48D3"/>
<stop offset="0.287564" stop-color="#4D4DE2"/>
<stop offset="0.808912" stop-color="#3778FC"/>
<stop offset="0.967351" stop-color="#0370FF"/>
</linearGradient>
<linearGradient id="paint8_linear_41_398" x1="26.8898" y1="41.761" x2="40.069" y2="48.9274" gradientUnits="userSpaceOnUse">
<stop offset="0.0271195" stop-color="#6C48D3"/>
<stop offset="0.287564" stop-color="#4D4DE2"/>
<stop offset="0.808912" stop-color="#3778FC"/>
<stop offset="0.967351" stop-color="#0370FF"/>
</linearGradient>
<linearGradient id="paint9_linear_41_398" x1="38.1995" y1="39.4105" x2="47.6295" y2="53.0214" gradientUnits="userSpaceOnUse">
<stop offset="0.0271195" stop-color="#6C48D3"/>
<stop offset="0.287564" stop-color="#4D4DE2"/>
<stop offset="0.808912" stop-color="#3778FC"/>
<stop offset="0.967351" stop-color="#0370FF"/>
</linearGradient>
<linearGradient id="paint10_linear_41_398" x1="38.1994" y1="50.4188" x2="47.6291" y2="64.0296" gradientUnits="userSpaceOnUse">
<stop offset="0.0271195" stop-color="#6C48D3"/>
<stop offset="0.287564" stop-color="#4D4DE2"/>
<stop offset="0.808912" stop-color="#3778FC"/>
<stop offset="0.967351" stop-color="#0370FF"/>
</linearGradient>
<clipPath id="clip0_41_398">
<rect width="38.0782" height="48" fill="white" transform="translate(18.2983 23)"/>
</clipPath>
</defs>
</svg>
