<svg width="16" height="17" viewBox="0 0 16 17" fill="none" xmlns="http://www.w3.org/2000/svg">
<path d="M6.59213 9.20468C6.89446 9.60925 7.28016 9.94402 7.7231 10.1863C8.16603 10.4285 8.65583 10.5725 9.15927 10.6086C9.66271 10.6447 10.168 10.572 10.6409 10.3954C11.1138 10.2189 11.5432 9.94253 11.9001 9.5852L14.012 7.47116C14.6532 6.80664 15.0079 5.91662 14.9999 4.99279C14.9919 4.06896 14.6217 3.18525 13.9691 2.53198C13.3165 1.87871 12.4337 1.50816 11.5108 1.50013C10.5879 1.49211 9.69877 1.84725 9.03491 2.48906L7.82408 3.69407" stroke="#FAFAFA" stroke-width="2" stroke-linecap="round" stroke-linejoin="round"/>
<path d="M9.40793 7.79529C9.10561 7.39071 8.7199 7.05595 8.27696 6.81371C7.83403 6.57147 7.34423 6.42742 6.84079 6.39133C6.33735 6.35523 5.83204 6.42795 5.35914 6.60453C4.88624 6.78111 4.45682 7.05744 4.09998 7.41476L1.98807 9.5288C1.3469 10.1933 0.992113 11.0833 1.00013 12.0072C1.00815 12.931 1.37833 13.8147 2.03094 14.468C2.68355 15.1212 3.56638 15.4918 4.48927 15.4998C5.41217 15.5079 6.30129 15.1527 6.96515 14.5109L8.16894 13.3059" stroke="#FAFAFA" stroke-width="2" stroke-linecap="round" stroke-linejoin="round"/>
</svg>
