<svg width="75" height="95" viewBox="0 0 75 95" fill="none" xmlns="http://www.w3.org/2000/svg">
<rect x="0.428223" y="0.125" width="74.5718" height="94" rx="10" fill="#FAFAFA"/>
<g clip-path="url(#clip0_41_401)">
<path d="M48.9983 63.446C48.9886 63.3861 48.9745 63.3269 48.9559 63.2707C48.9373 63.2135 48.9143 63.1592 48.8875 63.1086C48.86 63.057 48.8287 63.0091 48.7945 62.966C48.7603 62.9229 48.7224 62.8835 48.6815 62.8498C48.6413 62.8161 48.5982 62.787 48.5536 62.7635C48.5082 62.7401 48.4613 62.7213 48.4145 62.7102C48.1728 62.6483 47.9162 62.7485 47.7429 62.966C47.7087 63.0091 47.6775 63.057 47.6507 63.1086C47.6239 63.1592 47.6009 63.2135 47.5823 63.2707C47.5637 63.327 47.5495 63.386 47.5399 63.446C47.5302 63.506 47.525 63.5679 47.525 63.6288C47.525 63.6897 47.5302 63.7516 47.5399 63.8116C47.5495 63.8716 47.5637 63.9306 47.5823 63.9878C47.6009 64.0441 47.6239 64.0984 47.6507 64.1491C47.6775 64.2006 47.7087 64.2484 47.7429 64.2916C47.8812 64.4659 48.0731 64.5663 48.2687 64.5663C48.3171 64.5663 48.3661 64.5606 48.4145 64.5485C48.4613 64.5363 48.5082 64.5176 48.5536 64.4941C48.5982 64.4707 48.6413 64.4426 48.6815 64.4088C48.7224 64.3742 48.7603 64.3348 48.7945 64.2916C48.8287 64.2485 48.86 64.2007 48.8875 64.1491C48.9143 64.0985 48.9373 64.0441 48.9559 63.9879C48.9745 63.9307 48.9886 63.8716 48.9983 63.8116C49.008 63.7516 49.0124 63.6897 49.0124 63.6288C49.0124 63.5679 49.008 63.5059 48.9983 63.446Z" fill="url(#paint0_linear_41_401)"/>
<path d="M45.4426 62.6913H27.1574C26.7467 62.6913 26.4137 63.1112 26.4137 63.6288C26.4137 64.1465 26.7467 64.5663 27.1574 64.5663H45.4426C45.8534 64.5663 46.1864 64.1465 46.1864 63.6288C46.1864 63.1112 45.8534 62.6913 45.4426 62.6913Z" fill="url(#paint1_linear_41_401)"/>
<path d="M27.6834 66.5088C27.6492 66.4656 27.6112 66.4263 27.5703 66.3925C27.5302 66.3589 27.487 66.3297 27.4417 66.3063C27.397 66.2828 27.3502 66.2641 27.3026 66.2519C27.2066 66.2285 27.1077 66.2285 27.0118 66.2519C26.9649 66.2641 26.9181 66.2828 26.8727 66.3063C26.8281 66.3297 26.785 66.3589 26.7448 66.3925C26.7039 66.4263 26.666 66.4656 26.6318 66.5088C26.5975 66.5519 26.5663 66.5997 26.5388 66.6514C26.512 66.7019 26.489 66.7563 26.4704 66.8135C26.4518 66.8697 26.4376 66.9288 26.428 66.9888C26.4183 67.0488 26.4138 67.1106 26.4138 67.1716C26.4138 67.2324 26.4183 67.2944 26.428 67.3544C26.4376 67.4144 26.4518 67.4735 26.4704 67.5296C26.489 67.5868 26.512 67.6412 26.5388 67.6918C26.5663 67.7434 26.5975 67.7912 26.6318 67.8343C26.666 67.8774 26.7039 67.9169 26.7448 67.9505C26.785 67.9843 26.8281 68.0134 26.8727 68.0368C26.9181 68.0602 26.9649 68.079 27.0118 68.0902C27.0601 68.1024 27.1092 68.109 27.1576 68.109C27.2059 68.109 27.255 68.1024 27.3026 68.0902C27.3502 68.079 27.397 68.0602 27.4417 68.0368C27.487 68.0134 27.5302 67.9843 27.5703 67.9505C27.6112 67.9169 27.6492 67.8774 27.6834 67.8343C27.7176 67.7912 27.7488 67.7434 27.7756 67.6918C27.8024 67.6412 27.8254 67.5868 27.844 67.5296C27.8626 67.4734 27.8767 67.4144 27.8864 67.3544C27.8961 67.2943 27.9013 67.2324 27.9013 67.1716C27.9013 66.925 27.8217 66.6831 27.6834 66.5088Z" fill="url(#paint2_linear_41_401)"/>
<path d="M48.2688 66.2341H29.9836C29.5728 66.2341 29.2399 66.6539 29.2399 67.1716C29.2399 67.6893 29.5728 68.1091 29.9836 68.1091H48.2688C48.6795 68.1091 49.0125 67.6893 49.0125 67.1716C49.0125 66.6539 48.6795 66.2341 48.2688 66.2341Z" fill="url(#paint3_linear_41_401)"/>
<path d="M52.0062 23.125H23.4201C23.0093 23.125 22.6764 23.5448 22.6764 24.0625V70.1875C22.6764 70.7052 23.0093 71.125 23.4201 71.125H52.0062C52.4169 71.125 52.7499 70.7052 52.7499 70.1875V24.0625C52.75 24.0625 52.75 24.0625 52.75 24.0625C52.75 23.5448 52.417 23.125 52.0062 23.125ZM24.1638 25H51.2625V41.7506H49.1123L42.4726 30.5908C42.3322 30.3547 42.1117 30.2158 41.8777 30.2158C41.6436 30.2158 41.4232 30.3547 41.2827 30.5908L36.5781 38.4981L33.1387 33.4777C32.9975 33.2716 32.792 33.153 32.5759 33.153C32.3598 33.153 32.1543 33.2716 32.013 33.4777L26.3456 41.7505H24.1638V25ZM41.5108 37.5346H39.0107L39.5363 36.6511H44.219L47.253 41.7506H36.5023L37.8951 39.4096H41.5108C41.9215 39.4096 42.2545 38.9897 42.2545 38.4721C42.2545 37.9544 41.9215 37.5346 41.5108 37.5346ZM40.6519 34.7761L41.8777 32.7157L43.1035 34.7761H40.6519ZM35.6646 40.0335L34.6628 41.7173L34.643 41.7506H28.3108L32.5759 35.5249L35.6646 40.0335ZM24.1638 43.6259H51.2625V55.689H24.1638V43.6259ZM24.1638 57.564H51.2625V59.5327H24.1638V57.564ZM24.1638 69.25V61.4077H51.2625V69.25H24.1638Z" fill="url(#paint4_linear_41_401)"/>
<path d="M35.823 26.1774C34.3708 26.1774 33.1893 27.6668 33.1893 29.4974C33.1893 31.328 34.3709 32.8174 35.823 32.8174C37.2753 32.8174 38.4568 31.328 38.4568 29.4974C38.4568 27.6668 37.2754 26.1774 35.823 26.1774ZM35.823 30.9424C35.191 30.9424 34.6768 30.2942 34.6768 29.4974C34.6768 28.7006 35.191 28.0524 35.823 28.0524C36.4551 28.0524 36.9694 28.7006 36.9694 29.4974C36.9694 30.2942 36.4551 30.9424 35.823 30.9424Z" fill="url(#paint5_linear_41_401)"/>
<path d="M31.8754 45.3926H26.881C26.4703 45.3926 26.1373 45.8124 26.1373 46.3301V52.7363C26.1373 53.254 26.4703 53.6738 26.881 53.6738H31.8754C32.2861 53.6738 32.6191 53.254 32.6191 52.7363V46.3301C32.6191 45.8123 32.2861 45.3926 31.8754 45.3926ZM31.1317 51.7988H27.6248V47.2676H31.1317V51.7988Z" fill="url(#paint6_linear_41_401)"/>
<path d="M40.2103 45.3926H35.2161C34.8053 45.3926 34.4724 45.8124 34.4724 46.3301V52.7363C34.4724 53.254 34.8053 53.6738 35.2161 53.6738H40.2103C40.6211 53.6738 40.954 53.254 40.954 52.7363V46.3301C40.954 45.8123 40.6211 45.3926 40.2103 45.3926ZM39.4666 51.7988H35.9598V47.2676H39.4666V51.7988Z" fill="url(#paint7_linear_41_401)"/>
<path d="M48.5453 45.3926H43.5509C43.1402 45.3926 42.8072 45.8124 42.8072 46.3301V52.7363C42.8072 53.254 43.1402 53.6738 43.5509 53.6738H48.5453C48.956 53.6738 49.289 53.254 49.289 52.7363V46.3301C49.289 45.8124 48.956 45.3926 48.5453 45.3926ZM47.8016 51.7988H44.2947V47.2676H47.8016V51.7988Z" fill="url(#paint8_linear_41_401)"/>
</g>
<defs>
<linearGradient id="paint0_linear_41_401" x1="47.525" y1="62.5676" x2="49.4137" y2="64.3077" gradientUnits="userSpaceOnUse">
<stop offset="0.0271195" stop-color="#6C48D3"/>
<stop offset="0.287564" stop-color="#4D4DE2"/>
<stop offset="0.808912" stop-color="#3778FC"/>
<stop offset="0.967351" stop-color="#0370FF"/>
</linearGradient>
<linearGradient id="paint1_linear_41_401" x1="26.4137" y1="62.5668" x2="26.7214" y2="66.3334" gradientUnits="userSpaceOnUse">
<stop offset="0.0271195" stop-color="#6C48D3"/>
<stop offset="0.287564" stop-color="#4D4DE2"/>
<stop offset="0.808912" stop-color="#3778FC"/>
<stop offset="0.967351" stop-color="#0370FF"/>
</linearGradient>
<linearGradient id="paint2_linear_41_401" x1="26.4138" y1="66.1098" x2="28.303" y2="67.8498" gradientUnits="userSpaceOnUse">
<stop offset="0.0271195" stop-color="#6C48D3"/>
<stop offset="0.287564" stop-color="#4D4DE2"/>
<stop offset="0.808912" stop-color="#3778FC"/>
<stop offset="0.967351" stop-color="#0370FF"/>
</linearGradient>
<linearGradient id="paint3_linear_41_401" x1="29.2399" y1="66.1095" x2="29.5476" y2="69.8762" gradientUnits="userSpaceOnUse">
<stop offset="0.0271195" stop-color="#6C48D3"/>
<stop offset="0.287564" stop-color="#4D4DE2"/>
<stop offset="0.808912" stop-color="#3778FC"/>
<stop offset="0.967351" stop-color="#0370FF"/>
</linearGradient>
<linearGradient id="paint4_linear_41_401" x1="22.6764" y1="19.9362" x2="68.8507" y2="53.519" gradientUnits="userSpaceOnUse">
<stop offset="0.0271195" stop-color="#6C48D3"/>
<stop offset="0.287564" stop-color="#4D4DE2"/>
<stop offset="0.808912" stop-color="#3778FC"/>
<stop offset="0.967351" stop-color="#0370FF"/>
</linearGradient>
<linearGradient id="paint5_linear_41_401" x1="33.1893" y1="25.7363" x2="39.8805" y2="31.8982" gradientUnits="userSpaceOnUse">
<stop offset="0.0271195" stop-color="#6C48D3"/>
<stop offset="0.287564" stop-color="#4D4DE2"/>
<stop offset="0.808912" stop-color="#3778FC"/>
<stop offset="0.967351" stop-color="#0370FF"/>
</linearGradient>
<linearGradient id="paint6_linear_41_401" x1="26.1373" y1="44.8424" x2="34.4725" y2="52.4157" gradientUnits="userSpaceOnUse">
<stop offset="0.0271195" stop-color="#6C48D3"/>
<stop offset="0.287564" stop-color="#4D4DE2"/>
<stop offset="0.808912" stop-color="#3778FC"/>
<stop offset="0.967351" stop-color="#0370FF"/>
</linearGradient>
<linearGradient id="paint7_linear_41_401" x1="34.4724" y1="44.8424" x2="42.8075" y2="52.4156" gradientUnits="userSpaceOnUse">
<stop offset="0.0271195" stop-color="#6C48D3"/>
<stop offset="0.287564" stop-color="#4D4DE2"/>
<stop offset="0.808912" stop-color="#3778FC"/>
<stop offset="0.967351" stop-color="#0370FF"/>
</linearGradient>
<linearGradient id="paint8_linear_41_401" x1="42.8072" y1="44.8424" x2="51.1424" y2="52.4157" gradientUnits="userSpaceOnUse">
<stop offset="0.0271195" stop-color="#6C48D3"/>
<stop offset="0.287564" stop-color="#4D4DE2"/>
<stop offset="0.808912" stop-color="#3778FC"/>
<stop offset="0.967351" stop-color="#0370FF"/>
</linearGradient>
<clipPath id="clip0_41_401">
<rect width="38.0782" height="48" fill="white" transform="translate(18.674 23.125)"/>
</clipPath>
</defs>
</svg>
